# xmcd
#
# Track frame offsets: 
#        150
#        16387
#        33510
#        47340
#        65145
#        79130
#        94525
#        113480
#        127692
#        140530
#
# Disc length: 2044 seconds
#
# Revision: 0
# Processed by: cddbd v1.4PL0 Copyright (c) Steve Scherf et al.
# Submitted via: ExactAudioCopy v0.90a11
#
DISCID=7607fa0a
DTITLE=Jonathan Harris - Jonathan Harris
DYEAR=1900
DGENRE=
TTITLE0=Dang!
TTITLE1=Good Old Days
TTITLE2=That's What I Wanna Do
TTITLE3=Born to Love You
TTITLE4=She Loves Me
TTITLE5=Now and Then
TTITLE6=You
TTITLE7=Breakin' all the Rules
TTITLE8=Home Sweet Home
TTITLE9=Think About You
EXTD=
EXTT0=
EXTT1=
EXTT2=
EXTT3=
EXTT4=
EXTT5=
EXTT6=
EXTT7=
EXTT8=
EXTT9=
PLAYORDER=
